# xmcd CD database file
#
# Track frame offsets:
#	151
#	21787
#	37033
#	53914
#	72484
#	91889
#	108323
#	126527
#	141522
#	161439
#	180979
#	198430
#	217097
#	230036
#	253662
#	271329
#	295223
#
# Disc length: 4278 seconds
#
# Revision: 0
# Processed by: cddbd v1.5.1PL2 Copyright (c) Steve Scherf et al.
# Submitted via: CDex 1.51
#
DISCID=0910b411
DTITLE=George Benson - The Very Best of (Radio City)
DYEAR=1900
DGENRE=Jazz
TTITLE0=Love X Love
TTITLE1=In Your Eyes
TTITLE2=Give me the Night
TTITLE3=Never Give Up On  A Good Thing
TTITLE4=Love Ballad
TTITLE5=Shiver
TTITLE6=Lady Love Me (One More Time)
TTITLE7=This Masquerade
TTITLE8=Feel Like Making Love
TTITLE9=Nature Boy
TTITLE10=Turn Your Love Around
TTITLE11=20 20
TTITLE12=You Are The Love of My Love (w Roberta Flack)
TTITLE13=Inside Love (So Personal)
TTITLE14=Being with You
TTITLE15=On Broadway
TTITLE16=Breezin'
EXTD=
EXTT0=
EXTT1=
EXTT2=
EXTT3=
EXTT4=
EXTT5=
EXTT6=
EXTT7=
EXTT8=
EXTT9=
EXTT10=
EXTT11=
EXTT12=
EXTT13=
EXTT14=
EXTT15=
EXTT16=
PLAYORDER=
